# xmcd CD database file
#
# Track frame offsets:
#	150
#	19210
#	43863
#	61584
#	85655
#	106568
#	125400
#	146186
#	166897
#	187030
#	207326
#	227863
#	248357
#	267558
#	289012
#	311193
#
# Disc length: 4389 seconds
#
# Revision: 0
# Processed by: cddbd v1.5.2PL0 Copyright (c) Steve Scherf et al.
# Submitted via: CDex 1.51
#
DISCID=e1112310
DTITLE=Varios - Lo nuevo y lo mejor del Vallenato
DYEAR=1900
DGENRE=Vallenato
TTITLE0=El Jean (Diomedez Diaz)
TTITLE1=Enseñame a Olvidar (Los Infieles)
TTITLE2=Consejo como amigo (Ever Vargas y Charrito)
TTITLE3=La Indiferencia (Silvestre Dangón)
TTITLE4=Ajena (Nelson Velasquez)
TTITLE5=Esa (Ciro Quiñonez)
TTITLE6=El que por ti arriesga todo (Jorge Celedón)
TTITLE7=Quiero (Luifer Cuello)
TTITLE8=Quiero saber por que ( Binomio de Oro)
TTITLE9=No me daba cuenta (Los Infieles)
TTITLE10=El Milagrito (Luifer Cuello)
TTITLE11=Diferente a los demas (Binomio de Oro)
TTITLE12=No te dejas (Los Tiernos)
TTITLE13=Noches sin lucero (Diomedez Diaz)
TTITLE14=Te resulta facil (Luis Miguel Fuentes)
TTITLE15=Llegando a la cima (Luis Mateus)
EXTD=
EXTT0=
EXTT1=
EXTT2=
EXTT3=
EXTT4=
EXTT5=
EXTT6=
EXTT7=
EXTT8=
EXTT9=
EXTT10=
EXTT11=
EXTT12=
EXTT13=
EXTT14=
EXTT15=
PLAYORDER=
